<?xml version="1.0" encoding="UTF-8"?>
<svg width="512" height="512" viewBox="0 0 512 512" xmlns="http://www.w3.org/2000/svg">
  <!-- Definitions for gradients and patterns -->
  <defs>
    <!-- Main coin gradient - enhanced with more vibrant teal -->
    <linearGradient id="coinGradient" x1="0%" y1="0%" x2="100%" y2="100%">
      <stop offset="0%" stop-color="#0B3B5B" />
      <stop offset="100%" stop-color="#20B2AA" />
    </linearGradient>
    
    <!-- Gold accent gradient - enhanced with more vibrant gold -->
    <linearGradient id="goldGradient" x1="0%" y1="0%" x2="100%" y2="100%">
      <stop offset="0%" stop-color="#FFD700" />
      <stop offset="100%" stop-color="#FFA500" />
    </linearGradient>
    
    <!-- Purple highlight gradient - enhanced with more vibrant purple -->
    <linearGradient id="purpleGradient" x1="0%" y1="0%" x2="100%" y2="100%">
      <stop offset="0%" stop-color="#9370DB" />
      <stop offset="100%" stop-color="#8A2BE2" />
    </linearGradient>
    
    <!-- Network pattern - enhanced with more visible nodes -->
    <pattern id="networkPattern" x="0" y="0" width="60" height="60" patternUnits="userSpaceOnUse">
      <path d="M10 10 L50 10 L50 50 L10 50 Z" fill="none" stroke="rgba(255,255,255,0.15)" stroke-width="1" />
      <circle cx="10" cy="10" r="3" fill="rgba(255,255,255,0.25)" />
      <circle cx="50" cy="10" r="3" fill="rgba(255,255,255,0.25)" />
      <circle cx="10" cy="50" r="3" fill="rgba(255,255,255,0.25)" />
      <circle cx="50" cy="50" r="3" fill="rgba(255,255,255,0.25)" />
    </pattern>
    
    <!-- Hexagonal puzzle pattern - enhanced with more visible hexagons -->
    <pattern id="puzzlePattern" x="0" y="0" width="40" height="40" patternUnits="userSpaceOnUse">
      <path d="M10,0 L30,0 L40,17.32 L30,34.64 L10,34.64 L0,17.32 Z" fill="none" stroke="rgba(255,255,255,0.2)" stroke-width="1" />
    </pattern>
    
    <!-- Enhanced drop shadow for letters - stronger and more pronounced -->
    <filter id="enhancedShadow" x="-30%" y="-30%" width="160%" height="160%">
      <feGaussianBlur in="SourceAlpha" stdDeviation="5" />
      <feOffset dx="3" dy="3" result="offsetblur" />
      <feComponentTransfer>
        <feFuncA type="linear" slope="0.5" />
      </feComponentTransfer>
      <feMerge>
        <feMergeNode />
        <feMergeNode in="SourceGraphic" />
      </feMerge>
    </filter>
    
    <!-- Glow effect for outer ring -->
    <filter id="glow" x="-20%" y="-20%" width="140%" height="140%">
      <feGaussianBlur stdDeviation="5" result="blur" />
      <feFlood flood-color="gold" flood-opacity="0.3" result="glow" />
      <feComposite in="glow" in2="blur" operator="in" result="coloredBlur" />
      <feMerge>
        <feMergeNode in="coloredBlur" />
        <feMergeNode in="SourceGraphic" />
      </feMerge>
    </filter>
    
    <!-- Inner shadow for letters -->
    <filter id="innerShadow" x="-20%" y="-20%" width="140%" height="140%">
      <feGaussianBlur in="SourceAlpha" stdDeviation="2" result="blur" />
      <feOffset dx="0" dy="2" />
      <feComposite in2="SourceAlpha" operator="arithmetic" k2="-1" k3="1" result="shadowDiff" />
      <feFlood flood-color="#000000" flood-opacity="0.4" />
      <feComposite in2="shadowDiff" operator="in" />
      <feComposite in2="SourceGraphic" operator="over" />
    </filter>
  </defs>
  
  <!-- Main coin circle with subtle inner shadow -->
  <circle cx="256" cy="256" r="240" fill="url(#coinGradient)" />
  <circle cx="256" cy="256" r="235" fill="none" stroke="rgba(0,0,0,0.1)" stroke-width="10" />
  
  <!-- Enhanced background patterns -->
  <circle cx="256" cy="256" r="220" fill="url(#networkPattern)" />
  <circle cx="256" cy="256" r="200" fill="url(#puzzlePattern)" />
  
  <!-- Integrated KBU design - U as container with K and B back-to-back -->
  <g transform="translate(106, 106) scale(0.75)">
    <!-- U Letter as container - Purple with enhanced shadow -->
    <path d="M20,20 L400,20 C430,20 450,40 450,70 L450,330 C450,390 410,430 350,430 L70,430 C30,430 -10,390 -10,350 L-10,70 C-10,40 10,20 40,20 Z" fill="url(#purpleGradient)" filter="url(#enhancedShadow)" />
    
    <!-- Central shared vertical bar for K and B (back-to-back) -->
    <rect x="195" y="70" width="20" height="310" fill="white" filter="url(#innerShadow)" />
    
    <!-- Reversed K Letter (facing left) - White with enhanced shadow -->
    <g transform="translate(0, 70)">
      <!-- Left vertical bar of K -->
      <rect x="100" y="0" width="20" height="310" fill="white" filter="url(#innerShadow)" />
      
      <!-- Diagonal strokes of K -->
      <path d="M120,155 L195,0 L225,0 L150,155 L225,310 L195,310 L120,155 Z" fill="white" filter="url(#innerShadow)" />
    </g>
    
    <!-- Bitcoin-style B Letter - Gold with enhanced details -->
    <g transform="translate(195, 70)">
      <!-- Bitcoin B shape -->
      <path d="M20,0 C42,0 60,0 70,0 C90,0 105,15 105,40 C105,60 95,75 80,80 C100,85 115,100 115,125 C115,155 95,175 70,175 C60,175 40,175 20,175 L20,0 Z" fill="url(#goldGradient)" filter="url(#enhancedShadow)" />
      
      <!-- Bitcoin B shape bottom half -->
      <path d="M20,175 C42,175 60,175 70,175 C90,175 105,190 105,215 C105,235 95,250 80,255 C100,260 115,275 115,300 C115,330 95,350 70,350 C60,350 40,350 20,350 L20,175 Z" fill="url(#goldGradient)" filter="url(#enhancedShadow)" />
      
      <!-- Bitcoin B inner details - darker for better contrast -->
      <path d="M45,30 L45,70 L65,70 C75,70 80,60 80,50 C80,40 75,30 65,30 L45,30 Z" fill="#0B3B5B" filter="url(#innerShadow)" />
      <path d="M45,100 L45,145 L70,145 C80,145 85,135 85,122.5 C85,110 80,100 70,100 L45,100 Z" fill="#0B3B5B" filter="url(#innerShadow)" />
      <path d="M45,205 L45,245 L65,245 C75,245 80,235 80,225 C80,215 75,205 65,205 L45,205 Z" fill="#0B3B5B" filter="url(#innerShadow)" />
      <path d="M45,275 L45,320 L70,320 C80,320 85,310 85,297.5 C85,285 80,275 70,275 L45,275 Z" fill="#0B3B5B" filter="url(#innerShadow)" />
      
      <!-- Bitcoin B slashes - more prominent -->
      <path d="M20,0 L20,350 M35,30 L55,30 M35,70 L55,70 M35,100 L55,100 M35,145 L55,145 M35,205 L55,205 M35,245 L55,245 M35,275 L55,275 M35,320 L55,320" stroke="#0B3B5B" stroke-width="6" filter="url(#innerShadow)" />
    </g>
  </g>
  
  <!-- Enhanced outer ring with glow effect -->
  <circle cx="256" cy="256" r="240" fill="none" stroke="url(#goldGradient)" stroke-width="10" filter="url(#glow)" />
  
  <!-- Subtle highlights -->
  <ellipse cx="180" cy="150" rx="150" ry="50" fill="rgba(255,255,255,0.05)" />
  
  <!-- Subtle reflections on the coin surface -->
  <path d="M150,400 Q256,450 362,400" fill="none" stroke="rgba(255,255,255,0.1)" stroke-width="10" />
</svg>
