<?xml version="1.0" encoding="UTF-8"?>
<svg width="512" height="512" viewBox="0 0 512 512" xmlns="http://www.w3.org/2000/svg">
  <!-- Definitions for gradients and patterns -->
  <defs>
    <!-- Main coin gradient -->
    <linearGradient id="coinGradient" x1="0%" y1="0%" x2="100%" y2="100%">
      <stop offset="0%" stop-color="#0B3B5B" />
      <stop offset="100%" stop-color="#20B2AA" />
    </linearGradient>
    
    <!-- Gold accent gradient -->
    <linearGradient id="goldGradient" x1="0%" y1="0%" x2="100%" y2="100%">
      <stop offset="0%" stop-color="#FFD700" />
      <stop offset="100%" stop-color="#FFA500" />
    </linearGradient>
    
    <!-- Purple highlight gradient -->
    <linearGradient id="purpleGradient" x1="0%" y1="0%" x2="100%" y2="100%">
      <stop offset="0%" stop-color="#9370DB" />
      <stop offset="100%" stop-color="#8A2BE2" />
    </linearGradient>
    
    <!-- Network pattern -->
    <pattern id="networkPattern" x="0" y="0" width="60" height="60" patternUnits="userSpaceOnUse">
      <path d="M10 10 L50 10 L50 50 L10 50 Z" fill="none" stroke="rgba(255,255,255,0.1)" stroke-width="1" />
      <circle cx="10" cy="10" r="3" fill="rgba(255,255,255,0.2)" />
      <circle cx="50" cy="10" r="3" fill="rgba(255,255,255,0.2)" />
      <circle cx="10" cy="50" r="3" fill="rgba(255,255,255,0.2)" />
      <circle cx="50" cy="50" r="3" fill="rgba(255,255,255,0.2)" />
    </pattern>
    
    <!-- Hexagonal puzzle pattern -->
    <pattern id="puzzlePattern" x="0" y="0" width="40" height="40" patternUnits="userSpaceOnUse">
      <path d="M10,0 L30,0 L40,17.32 L30,34.64 L10,34.64 L0,17.32 Z" fill="none" stroke="rgba(255,255,255,0.15)" stroke-width="1" />
    </pattern>
  </defs>
  
  <!-- Main coin circle -->
  <circle cx="256" cy="256" r="240" fill="url(#coinGradient)" />
  
  <!-- Background patterns -->
  <circle cx="256" cy="256" r="220" fill="url(#networkPattern)" />
  <circle cx="256" cy="256" r="200" fill="url(#puzzlePattern)" />
  
  <!-- Support ticket element -->
  <rect x="400" y="200" width="30" height="40" rx="5" ry="5" fill="rgba(255,255,255,0.8)" />
  <line x1="410" y1="210" x2="420" y2="210" stroke="#0B3B5B" stroke-width="2" />
  <line x1="410" y1="220" x2="420" y2="220" stroke="#0B3B5B" stroke-width="2" />
  <line x1="410" y1="230" x2="420" y2="230" stroke="#0B3B5B" stroke-width="2" />
  
  <!-- Letter Group Container -->
  <g transform="translate(100, 150)">
    <!-- K Letter - White -->
    <path d="M0,0 L40,0 L40,80 L80,0 L130,0 L70,100 L140,200 L90,200 L40,120 L40,200 L0,200 Z" fill="white" />
    
    <!-- Bitcoin-style B Letter - Gold -->
    <g transform="translate(130, 0)">
      <!-- Bitcoin B shape -->
      <path d="M40,0 C62,0 80,0 90,0 C110,0 125,15 125,40 C125,60 115,75 100,80 C120,85 135,100 135,125 C135,155 115,175 90,175 C80,175 60,175 40,175 L40,0 Z" fill="url(#goldGradient)" />
      
      <!-- Bitcoin B inner details -->
      <path d="M65,30 L65,70 L85,70 C95,70 100,60 100,50 C100,40 95,30 85,30 L65,30 Z" fill="url(#coinGradient)" />
      <path d="M65,100 L65,145 L90,145 C100,145 105,135 105,122.5 C105,110 100,100 90,100 L65,100 Z" fill="url(#coinGradient)" />
      
      <!-- Bitcoin B slashes -->
      <path d="M65,0 L65,175 M55,30 L75,30 M55,70 L75,70 M55,100 L75,100 M55,145 L75,145" stroke="url(#coinGradient)" stroke-width="5" />
    </g>
    
    <!-- U Letter - Purple -->
    <g transform="translate(270, 0)">
      <path d="M0,0 L40,0 L40,130 C40,140 45,150 55,155 C65,160 75,160 85,155 C95,150 100,140 100,130 L100,0 L140,0 L140,140 C140,160 130,180 110,190 C90,200 70,200 50,190 C30,180 20,160 20,140 L20,0 L0,0 Z" fill="url(#purpleGradient)" />
    </g>
  </g>
  
  <!-- Subtle $ symbol overlay to suggest money -->
  <path d="M256,120 L256,380 M230,150 L270,150 M230,350 L270,350" fill="none" stroke="rgba(255,255,255,0.2)" stroke-width="6" stroke-linecap="round" />
  
  <!-- Outer ring -->
  <circle cx="256" cy="256" r="240" fill="none" stroke="url(#goldGradient)" stroke-width="8" />
</svg>
