<?xml version="1.0" encoding="UTF-8"?>
<svg width="512" height="512" viewBox="0 0 512 512" xmlns="http://www.w3.org/2000/svg">
  <!-- Definitions for gradients and patterns -->
  <defs>
    <!-- Main coin gradient - blue tones from reference -->
    <linearGradient id="coinGradient" x1="0%" y1="0%" x2="100%" y2="100%">
      <stop offset="0%" stop-color="#0A4B7C" />
      <stop offset="100%" stop-color="#0F6CA6" />
    </linearGradient>
    
    <!-- Gold accent gradient for outer ring -->
    <linearGradient id="goldGradient" x1="0%" y1="0%" x2="100%" y2="100%">
      <stop offset="0%" stop-color="#FFD700" />
      <stop offset="100%" stop-color="#FFA500" />
    </linearGradient>
    
    <!-- Light blue gradient for K -->
    <linearGradient id="kGradient" x1="0%" y1="0%" x2="100%" y2="100%">
      <stop offset="0%" stop-color="#A0E5FF" />
      <stop offset="100%" stop-color="#70C8E0" />
    </linearGradient>
    
    <!-- Gold node gradient -->
    <radialGradient id="nodeGradient" cx="50%" cy="50%" r="50%" fx="50%" fy="50%">
      <stop offset="0%" stop-color="#FFD700" />
      <stop offset="100%" stop-color="#FFA500" />
    </radialGradient>
    
    <!-- White node gradient -->
    <radialGradient id="whiteNodeGradient" cx="50%" cy="50%" r="50%" fx="50%" fy="50%">
      <stop offset="0%" stop-color="#FFFFFF" />
      <stop offset="100%" stop-color="#E0E0E0" />
    </radialGradient>
    
    <!-- Grid pattern -->
    <pattern id="gridPattern" x="0" y="0" width="40" height="40" patternUnits="userSpaceOnUse">
      <path d="M0 0 L40 0 L40 40 L0 40 Z" fill="none" stroke="rgba(120,210,255,0.15)" stroke-width="1" />
      <circle cx="0" cy="0" r="1" fill="rgba(120,210,255,0.3)" />
      <circle cx="40" cy="0" r="1" fill="rgba(120,210,255,0.3)" />
      <circle cx="0" cy="40" r="1" fill="rgba(120,210,255,0.3)" />
      <circle cx="40" cy="40" r="1" fill="rgba(120,210,255,0.3)" />
      <circle cx="20" cy="20" r="1" fill="rgba(120,210,255,0.3)" />
    </pattern>
    
    <!-- Gold ring pattern -->
    <pattern id="goldRingPattern" x="0" y="0" width="20" height="20" patternUnits="userSpaceOnUse">
      <circle cx="10" cy="10" r="4" fill="#FFD700" opacity="0.5" />
    </pattern>
    
    <!-- Outer glow -->
    <filter id="outerGlow" x="-20%" y="-20%" width="140%" height="140%">
      <feGaussianBlur in="SourceAlpha" stdDeviation="5" result="blur" />
      <feFlood flood-color="#FFD700" flood-opacity="0.3" result="glow" />
      <feComposite in="glow" in2="blur" operator="in" result="coloredBlur" />
      <feMerge>
        <feMergeNode in="coloredBlur" />
        <feMergeNode in="SourceGraphic" />
      </feMerge>
    </filter>
    
    <!-- Inner shadow for depth -->
    <filter id="innerShadow" x="-20%" y="-20%" width="140%" height="140%">
      <feGaussianBlur in="SourceAlpha" stdDeviation="2" result="blur" />
      <feOffset dx="0" dy="2" />
      <feComposite in2="SourceAlpha" operator="arithmetic" k2="-1" k3="1" result="shadowDiff" />
      <feFlood flood-color="#000000" flood-opacity="0.3" />
      <feComposite in2="shadowDiff" operator="in" />
      <feComposite in2="SourceGraphic" operator="over" />
    </filter>
  </defs>
  
  <!-- Dark blue outer ring -->
  <circle cx="256" cy="256" r="250" fill="#083D66" />
  
  <!-- Gold outer ring with pattern -->
  <circle cx="256" cy="256" r="240" fill="url(#goldGradient)" />
  <circle cx="256" cy="256" r="240" fill="url(#goldRingPattern)" />
  
  <!-- Main coin circle with blue gradient -->
  <circle cx="256" cy="256" r="220" fill="url(#coinGradient)" />
  
  <!-- Grid background -->
  <circle cx="256" cy="256" r="200" fill="url(#gridPattern)" />
  
  <!-- Network nodes and connections -->
  <!-- Outer ring of nodes -->
  <g id="network">
    <!-- First create the connections (lines) so they appear behind nodes -->
    <!-- Outer ring connections -->
    <path d="M256,76 L316,86 L366,116 L406,166 L426,226 L426,286 L406,346 L366,396 L316,426 L256,436 L196,426 L146,396 L106,346 L86,286 L86,226 L106,166 L146,116 L196,86 Z" fill="none" stroke="rgba(255,255,255,0.3)" stroke-width="1" />
    
    <!-- Cross connections -->
    <path d="M256,76 L366,116 L426,226 L366,396 L256,436 L146,396 L86,226 L146,116 Z" fill="none" stroke="rgba(255,255,255,0.3)" stroke-width="1" />
    <path d="M196,86 L406,166 L426,286 L316,426 L196,426 L106,346 L86,226 L146,116 Z" fill="none" stroke="rgba(255,255,255,0.3)" stroke-width="1" />
    <path d="M316,86 L406,166 L426,286 L406,346 L316,426 L196,426 L106,346 L86,226 Z" fill="none" stroke="rgba(255,255,255,0.3)" stroke-width="1" />
    
    <!-- Inner connections -->
    <path d="M256,156 L316,166 L356,206 L376,256 L356,306 L316,346 L256,356 L196,346 L156,306 L136,256 L156,206 L196,166 Z" fill="none" stroke="rgba(255,255,255,0.3)" stroke-width="1" />
    
    <!-- Now add the nodes -->
    <!-- Outer ring nodes - alternating gold and white -->
    <circle cx="256" cy="76" r="6" fill="url(#nodeGradient)" />
    <circle cx="316" cy="86" r="6" fill="url(#whiteNodeGradient)" />
    <circle cx="366" cy="116" r="6" fill="url(#nodeGradient)" />
    <circle cx="406" cy="166" r="6" fill="url(#whiteNodeGradient)" />
    <circle cx="426" cy="226" r="6" fill="url(#nodeGradient)" />
    <circle cx="426" cy="286" r="6" fill="url(#whiteNodeGradient)" />
    <circle cx="406" cy="346" r="6" fill="url(#nodeGradient)" />
    <circle cx="366" cy="396" r="6" fill="url(#whiteNodeGradient)" />
    <circle cx="316" cy="426" r="6" fill="url(#nodeGradient)" />
    <circle cx="256" cy="436" r="6" fill="url(#whiteNodeGradient)" />
    <circle cx="196" cy="426" r="6" fill="url(#nodeGradient)" />
    <circle cx="146" cy="396" r="6" fill="url(#whiteNodeGradient)" />
    <circle cx="106" cy="346" r="6" fill="url(#nodeGradient)" />
    <circle cx="86" cy="286" r="6" fill="url(#whiteNodeGradient)" />
    <circle cx="86" cy="226" r="6" fill="url(#nodeGradient)" />
    <circle cx="106" cy="166" r="6" fill="url(#whiteNodeGradient)" />
    <circle cx="146" cy="116" r="6" fill="url(#nodeGradient)" />
    <circle cx="196" cy="86" r="6" fill="url(#whiteNodeGradient)" />
    
    <!-- Inner nodes - all light blue -->
    <circle cx="256" cy="156" r="4" fill="rgba(120,210,255,0.8)" />
    <circle cx="316" cy="166" r="4" fill="rgba(120,210,255,0.8)" />
    <circle cx="356" cy="206" r="4" fill="rgba(120,210,255,0.8)" />
    <circle cx="376" cy="256" r="4" fill="rgba(120,210,255,0.8)" />
    <circle cx="356" cy="306" r="4" fill="rgba(120,210,255,0.8)" />
    <circle cx="316" cy="346" r="4" fill="rgba(120,210,255,0.8)" />
    <circle cx="256" cy="356" r="4" fill="rgba(120,210,255,0.8)" />
    <circle cx="196" cy="346" r="4" fill="rgba(120,210,255,0.8)" />
    <circle cx="156" cy="306" r="4" fill="rgba(120,210,255,0.8)" />
    <circle cx="136" cy="256" r="4" fill="rgba(120,210,255,0.8)" />
    <circle cx="156" cy="206" r="4" fill="rgba(120,210,255,0.8)" />
    <circle cx="196" cy="166" r="4" fill="rgba(120,210,255,0.8)" />
  </g>
  
  <!-- KBU Letters - centered and prominent -->
  <g transform="translate(156, 156)">
    <!-- K Letter - Light blue gradient -->
    <path d="M0,0 L40,0 L40,80 L80,0 L130,0 L70,100 L140,200 L90,200 L40,120 L40,200 L0,200 Z" fill="url(#kGradient)" filter="url(#innerShadow)" />
    
    <!-- Bitcoin-style B Letter - Gold -->
    <g transform="translate(140, 0)">
      <!-- Bitcoin B shape -->
      <path d="M40,0 C62,0 80,0 90,0 C110,0 125,15 125,40 C125,60 115,75 100,80 C120,85 135,100 135,125 C135,155 115,175 90,175 C80,175 60,175 40,175 L40,0 Z" fill="url(#goldGradient)" filter="url(#innerShadow)" />
      
      <!-- Bitcoin B inner details -->
      <path d="M65,30 L65,70 L85,70 C95,70 100,60 100,50 C100,40 95,30 85,30 L65,30 Z" fill="#0B3B5B" />
      <path d="M65,100 L65,145 L90,145 C100,145 105,135 105,122.5 C105,110 100,100 90,100 L65,100 Z" fill="#0B3B5B" />
      
      <!-- Bitcoin B slashes -->
      <path d="M65,0 L65,175 M55,30 L75,30 M55,70 L75,70 M55,100 L75,100 M55,145 L75,145" stroke="#0B3B5B" stroke-width="5" />
    </g>
    
    <!-- U Letter - Light blue gradient -->
    <g transform="translate(270, 0)">
      <path d="M0,0 L40,0 L40,130 C40,140 45,150 55,155 C65,160 75,160 85,155 C95,150 100,140 100,130 L100,0 L140,0 L140,140 C140,160 130,180 110,190 C90,200 70,200 50,190 C30,180 20,160 20,140 L20,0 L0,0 Z" fill="url(#kGradient)" filter="url(#innerShadow)" />
    </g>
  </g>
  
  <!-- Outer gold ring with glow -->
  <circle cx="256" cy="256" r="240" fill="none" stroke="url(#goldGradient)" stroke-width="10" filter="url(#outerGlow)" />
</svg>
