<?xml version="1.0" encoding="UTF-8"?>
<svg width="512" height="512" viewBox="0 0 512 512" xmlns="http://www.w3.org/2000/svg">
  <!-- Definitions for gradients and patterns -->
  <defs>
    <!-- Main coin gradient -->
    <linearGradient id="coinGradient" x1="0%" y1="0%" x2="100%" y2="100%">
      <stop offset="0%" stop-color="#0B3B5B" />
      <stop offset="100%" stop-color="#20B2AA" />
    </linearGradient>
    
    <!-- Gold accent gradient -->
    <linearGradient id="goldGradient" x1="0%" y1="0%" x2="100%" y2="100%">
      <stop offset="0%" stop-color="#FFD700" />
      <stop offset="100%" stop-color="#FFA500" />
    </linearGradient>
    
    <!-- Purple highlight gradient -->
    <linearGradient id="purpleGradient" x1="0%" y1="0%" x2="100%" y2="100%">
      <stop offset="0%" stop-color="#9370DB" />
      <stop offset="100%" stop-color="#8A2BE2" />
    </linearGradient>
    
    <!-- Network pattern -->
    <pattern id="networkPattern" x="0" y="0" width="60" height="60" patternUnits="userSpaceOnUse">
      <path d="M10 10 L50 10 L50 50 L10 50 Z" fill="none" stroke="rgba(255,255,255,0.1)" stroke-width="1" />
      <circle cx="10" cy="10" r="3" fill="rgba(255,255,255,0.2)" />
      <circle cx="50" cy="10" r="3" fill="rgba(255,255,255,0.2)" />
      <circle cx="10" cy="50" r="3" fill="rgba(255,255,255,0.2)" />
      <circle cx="50" cy="50" r="3" fill="rgba(255,255,255,0.2)" />
    </pattern>
    
    <!-- Hexagonal puzzle pattern -->
    <pattern id="puzzlePattern" x="0" y="0" width="40" height="40" patternUnits="userSpaceOnUse">
      <path d="M10,0 L30,0 L40,17.32 L30,34.64 L10,34.64 L0,17.32 Z" fill="none" stroke="rgba(255,255,255,0.15)" stroke-width="1" />
    </pattern>
  </defs>
  
  <!-- Main coin circle -->
  <circle cx="256" cy="256" r="240" fill="url(#coinGradient)" />
  
  <!-- Background patterns -->
  <circle cx="256" cy="256" r="220" fill="url(#networkPattern)" />
  <circle cx="256" cy="256" r="200" fill="url(#puzzlePattern)" />
  
  <!-- Yin-yang style arrangement for coin/reputation -->
  <path d="M256,136 C201.5,136 157,180.5 157,235 C157,289.5 201.5,334 256,334 C310.5,334 355,289.5 355,235 C355,180.5 310.5,136 256,136 Z M256,235 C229.5,235 208,213.5 208,187 C208,160.5 229.5,139 256,139 C282.5,139 304,160.5 304,187 C304,213.5 282.5,235 256,235 Z" fill="url(#goldGradient)" />
  
  <path d="M256,334 C201.5,334 157,378.5 157,433 C157,487.5 201.5,532 256,532 C310.5,532 355,487.5 355,433 C355,378.5 310.5,334 256,334 Z M256,433 C282.5,433 304,411.5 304,385 C304,358.5 282.5,337 256,337 C229.5,337 208,358.5 208,385 C208,411.5 229.5,433 256,433 Z" fill="url(#purpleGradient)" transform="translate(0, -159)" />
  
  <!-- Stylized "K" letter -->
  <path d="M190,150 L230,150 L230,230 L270,150 L320,150 L260,250 L330,350 L280,350 L230,270 L230,350 L190,350 Z" fill="white" />
  
  <!-- Support ticket element -->
  <rect x="350" y="170" width="30" height="40" rx="5" ry="5" fill="rgba(255,255,255,0.8)" />
  <line x1="360" y1="180" x2="370" y2="180" stroke="#0B3B5B" stroke-width="2" />
  <line x1="360" y1="190" x2="370" y2="190" stroke="#0B3B5B" stroke-width="2" />
  <line x1="360" y1="200" x2="370" y2="200" stroke="#0B3B5B" stroke-width="2" />
  
  <!-- Outer ring -->
  <circle cx="256" cy="256" r="240" fill="none" stroke="url(#goldGradient)" stroke-width="8" />
</svg>
