<?xml version="1.0" encoding="UTF-8"?>
<svg width="512" height="512" viewBox="0 0 512 512" xmlns="http://www.w3.org/2000/svg">
  <!-- Definitions for gradients and patterns -->
  <defs>
    <!-- Main coin gradient -->
    <linearGradient id="coinGradient" x1="0%" y1="0%" x2="100%" y2="100%">
      <stop offset="0%" stop-color="#0B3B5B" />
      <stop offset="100%" stop-color="#20B2AA" />
    </linearGradient>
    
    <!-- Gold accent gradient -->
    <linearGradient id="goldGradient" x1="0%" y1="0%" x2="100%" y2="100%">
      <stop offset="0%" stop-color="#FFD700" />
      <stop offset="100%" stop-color="#FFA500" />
    </linearGradient>
    
    <!-- Purple highlight gradient -->
    <linearGradient id="purpleGradient" x1="0%" y1="0%" x2="100%" y2="100%">
      <stop offset="0%" stop-color="#9370DB" />
      <stop offset="100%" stop-color="#8A2BE2" />
    </linearGradient>
    
    <!-- Network pattern -->
    <pattern id="networkPattern" x="0" y="0" width="60" height="60" patternUnits="userSpaceOnUse">
      <path d="M10 10 L50 10 L50 50 L10 50 Z" fill="none" stroke="rgba(255,255,255,0.1)" stroke-width="1" />
      <circle cx="10" cy="10" r="3" fill="rgba(255,255,255,0.2)" />
      <circle cx="50" cy="10" r="3" fill="rgba(255,255,255,0.2)" />
      <circle cx="10" cy="50" r="3" fill="rgba(255,255,255,0.2)" />
      <circle cx="50" cy="50" r="3" fill="rgba(255,255,255,0.2)" />
    </pattern>
    
    <!-- Hexagonal puzzle pattern -->
    <pattern id="puzzlePattern" x="0" y="0" width="40" height="40" patternUnits="userSpaceOnUse">
      <path d="M10,0 L30,0 L40,17.32 L30,34.64 L10,34.64 L0,17.32 Z" fill="none" stroke="rgba(255,255,255,0.15)" stroke-width="1" />
    </pattern>
    
    <!-- Drop shadow filter -->
    <filter id="dropShadow" x="-20%" y="-20%" width="140%" height="140%">
      <feGaussianBlur in="SourceAlpha" stdDeviation="15" />
      <feOffset dx="5" dy="5" result="offsetblur" />
      <feComponentTransfer>
        <feFuncA type="linear" slope="0.5" />
      </feComponentTransfer>
      <feMerge>
        <feMergeNode />
        <feMergeNode in="SourceGraphic" />
      </feMerge>
    </filter>
  </defs>
  
  <!-- App icon container (rounded square) -->
  <rect x="36" y="36" width="440" height="440" rx="80" ry="80" fill="#0B3B5B" filter="url(#dropShadow)" />
  
  <!-- Vault/safe door background -->
  <rect x="76" y="76" width="360" height="360" rx="40" ry="40" fill="#072A40" />
  <circle cx="256" cy="256" r="150" fill="#061E2E" />
  <circle cx="256" cy="256" r="140" fill="url(#coinGradient)" />
  
  <!-- Vault door details -->
  <circle cx="256" cy="256" r="160" fill="none" stroke="#072A40" stroke-width="10" stroke-dasharray="20,10" />
  <circle cx="256" cy="256" r="170" fill="none" stroke="rgba(255,255,255,0.1)" stroke-width="5" />
  <circle cx="370" cy="130" r="25" fill="#072A40" stroke="url(#goldGradient)" stroke-width="3" />
  <circle cx="370" cy="130" r="15" fill="url(#goldGradient)" />
  
  <!-- Background patterns -->
  <circle cx="256" cy="256" r="130" fill="url(#networkPattern)" />
  <circle cx="256" cy="256" r="120" fill="url(#puzzlePattern)" />
  
  <!-- Yin-yang style arrangement for coin/reputation (smaller than in coin version) -->
  <path d="M256,176 C221.5,176 193,204.5 193,239 C193,273.5 221.5,302 256,302 C290.5,302 319,273.5 319,239 C319,204.5 290.5,176 256,176 Z M256,239 C239.5,239 226,225.5 226,209 C226,192.5 239.5,179 256,179 C272.5,179 286,192.5 286,209 C286,225.5 272.5,239 256,239 Z" fill="url(#goldGradient)" />
  
  <path d="M256,302 C221.5,302 193,330.5 193,365 C193,399.5 221.5,428 256,428 C290.5,428 319,399.5 319,365 C319,330.5 290.5,302 256,302 Z M256,365 C272.5,365 286,351.5 286,335 C286,318.5 272.5,305 256,305 C239.5,305 226,318.5 226,335 C226,351.5 239.5,365 256,365 Z" fill="url(#purpleGradient)" transform="translate(0, -95)" />
  
  <!-- Stylized "K" letter -->
  <path d="M210,180 L240,180 L240,240 L270,180 L310,180 L265,255 L315,330 L275,330 L240,270 L240,330 L210,330 Z" fill="white" />
  
  <!-- Support ticket element (more prominent in app icon) -->
  <g transform="translate(350, 320)">
    <rect x="0" y="0" width="40" height="50" rx="5" ry="5" fill="rgba(255,255,255,0.9)" filter="url(#dropShadow)" />
    <line x1="10" y1="15" x2="30" y2="15" stroke="#0B3B5B" stroke-width="3" />
    <line x1="10" y1="25" x2="30" y2="25" stroke="#0B3B5B" stroke-width="3" />
    <line x1="10" y1="35" x2="30" y2="35" stroke="#0B3B5B" stroke-width="3" />
    <circle cx="20" cy="5" r="10" fill="url(#purpleGradient)" />
  </g>
  
  <!-- Metallic highlights -->
  <ellipse cx="200" cy="150" rx="120" ry="40" fill="rgba(255,255,255,0.1)" />
  
  <!-- Outer ring -->
  <rect x="36" y="36" width="440" height="440" rx="80" ry="80" fill="none" stroke="url(#goldGradient)" stroke-width="5" />
</svg>
