<?xml version="1.0" encoding="UTF-8"?>
<svg width="512" height="512" viewBox="0 0 512 512" xmlns="http://www.w3.org/2000/svg">
  <!-- Definitions for gradients and patterns -->
  <defs>
    <!-- Main coin gradient - enhanced with more vibrant teal -->
    <linearGradient id="coinGradient" x1="0%" y1="0%" x2="100%" y2="100%">
      <stop offset="0%" stop-color="#0B3B5B" />
      <stop offset="100%" stop-color="#20B2AA" />
    </linearGradient>
    
    <!-- Gold accent gradient - enhanced with more vibrant gold -->
    <linearGradient id="goldGradient" x1="0%" y1="0%" x2="100%" y2="100%">
      <stop offset="0%" stop-color="#FFD700" />
      <stop offset="100%" stop-color="#FFA500" />
    </linearGradient>
    
    <!-- Purple highlight gradient - enhanced with more vibrant purple -->
    <linearGradient id="purpleGradient" x1="0%" y1="0%" x2="100%" y2="100%">
      <stop offset="0%" stop-color="#9370DB" />
      <stop offset="100%" stop-color="#8A2BE2" />
    </linearGradient>
    
    <!-- Network pattern - enhanced with more visible nodes -->
    <pattern id="networkPattern" x="0" y="0" width="60" height="60" patternUnits="userSpaceOnUse">
      <path d="M10 10 L50 10 L50 50 L10 50 Z" fill="none" stroke="rgba(255,255,255,0.15)" stroke-width="1" />
      <circle cx="10" cy="10" r="3" fill="rgba(255,255,255,0.25)" />
      <circle cx="50" cy="10" r="3" fill="rgba(255,255,255,0.25)" />
      <circle cx="10" cy="50" r="3" fill="rgba(255,255,255,0.25)" />
      <circle cx="50" cy="50" r="3" fill="rgba(255,255,255,0.25)" />
    </pattern>
    
    <!-- Hexagonal puzzle pattern - enhanced with more visible hexagons -->
    <pattern id="puzzlePattern" x="0" y="0" width="40" height="40" patternUnits="userSpaceOnUse">
      <path d="M10,0 L30,0 L40,17.32 L30,34.64 L10,34.64 L0,17.32 Z" fill="none" stroke="rgba(255,255,255,0.2)" stroke-width="1" />
    </pattern>
    
    <!-- Enhanced drop shadow -->
    <filter id="enhancedShadow" x="-30%" y="-30%" width="160%" height="160%">
      <feGaussianBlur in="SourceAlpha" stdDeviation="5" />
      <feOffset dx="3" dy="3" result="offsetblur" />
      <feComponentTransfer>
        <feFuncA type="linear" slope="0.5" />
      </feComponentTransfer>
      <feMerge>
        <feMergeNode />
        <feMergeNode in="SourceGraphic" />
      </feMerge>
    </filter>
    
    <!-- Glow effect for outer ring -->
    <filter id="glow" x="-20%" y="-20%" width="140%" height="140%">
      <feGaussianBlur stdDeviation="5" result="blur" />
      <feFlood flood-color="gold" flood-opacity="0.3" result="glow" />
      <feComposite in="glow" in2="blur" operator="in" result="coloredBlur" />
      <feMerge>
        <feMergeNode in="coloredBlur" />
        <feMergeNode in="SourceGraphic" />
      </feMerge>
    </filter>
    
    <!-- Inner shadow for depth -->
    <filter id="innerShadow" x="-20%" y="-20%" width="140%" height="140%">
      <feGaussianBlur in="SourceAlpha" stdDeviation="2" result="blur" />
      <feOffset dx="0" dy="2" />
      <feComposite in2="SourceAlpha" operator="arithmetic" k2="-1" k3="1" result="shadowDiff" />
      <feFlood flood-color="#000000" flood-opacity="0.4" />
      <feComposite in2="shadowDiff" operator="in" />
      <feComposite in2="SourceGraphic" operator="over" />
    </filter>
  </defs>
  
  <!-- Main coin circle with teal gradient background -->
  <circle cx="256" cy="256" r="240" fill="url(#coinGradient)" />
  
  <!-- Enhanced background patterns -->
  <circle cx="256" cy="256" r="220" fill="url(#networkPattern)" />
  <circle cx="256" cy="256" r="200" fill="url(#puzzlePattern)" />
  
  <!-- Modern KBUC logo design -->
  <!-- U-shaped container with more modern curves -->
  <path d="M146,146 L366,146 C376,146 386,156 386,166 L386,306 C386,346 356,376 316,376 L196,376 C156,376 126,346 126,306 L126,166 C126,156 136,146 146,146 Z" 
        fill="url(#purpleGradient)" stroke="white" stroke-width="4" filter="url(#enhancedShadow)" />
  
  <!-- Left vertical line with slight curve at bottom -->
  <path d="M176,166 L176,306 C176,316 181,326 191,326" stroke="white" stroke-width="10" stroke-linecap="round" fill="none" />
  
  <!-- Right vertical line with slight curve at bottom -->
  <path d="M336,166 L336,306 C336,316 331,326 321,326" stroke="white" stroke-width="10" stroke-linecap="round" fill="none" />
  
  <!-- K-like chevron - modernized -->
  <path d="M186,256 L216,226 L246,256 L216,286 L186,256 Z" fill="white" filter="url(#innerShadow)" />
  
  <!-- Bitcoin-style B - modernized with more elegant curves -->
  <g transform="translate(246, 166)">
    <!-- Bitcoin B vertical line -->
    <rect x="0" y="0" width="10" height="200" fill="url(#goldGradient)" />
    
    <!-- Bitcoin B upper curve -->
    <path d="M10,10 L50,10 C70,10 80,30 80,50 C80,70 70,90 50,90 L10,90" fill="url(#goldGradient)" />
    
    <!-- Bitcoin B lower curve -->
    <path d="M10,110 L60,110 C80,110 90,130 90,150 C90,170 80,190 60,190 L10,190" fill="url(#goldGradient)" />
    
    <!-- Bitcoin B inner details -->
    <path d="M20,30 L40,30 C50,30 55,40 55,50 C55,60 50,70 40,70 L20,70 Z" fill="#0B3B5B" />
    <path d="M20,130 L50,130 C60,130 65,140 65,150 C65,160 60,170 50,170 L20,170 Z" fill="#0B3B5B" />
    
    <!-- Bitcoin B slashes -->
    <path d="M10,10 L30,10 M10,90 L30,90 M10,110 L30,110 M10,190 L30,190" stroke="#0B3B5B" stroke-width="4" />
  </g>
  
  <!-- Enhanced outer ring with glow effect -->
  <circle cx="256" cy="256" r="240" fill="none" stroke="url(#goldGradient)" stroke-width="10" filter="url(#glow)" />
  
  <!-- Subtle reflections and highlights -->
  <ellipse cx="200" cy="150" rx="150" ry="40" fill="rgba(255,255,255,0.07)" />
  <path d="M150,400 Q256,450 362,400" fill="none" stroke="rgba(255,255,255,0.15)" stroke-width="10" />
</svg>
